<?xml version="1.0" encoding="UTF-8"?>
<svg width="1024" height="1024" viewBox="0 0 1024 1024" fill="none" xmlns="http://www.w3.org/2000/svg">
  <rect width="1024" height="1024" fill="#0066CC"/>
  <path d="M512 256C371.645 256 256 371.645 256 512C256 652.355 371.645 768 512 768C652.355 768 768 652.355 768 512C768 371.645 652.355 256 512 256ZM512 704C407.019 704 320 616.981 320 512C320 407.019 407.019 320 512 320C616.981 320 704 407.019 704 512C704 616.981 616.981 704 512 704Z" fill="white"/>
  <path d="M512 384C465.019 384 427.314 421.705 427.314 468.686C427.314 515.667 465.019 553.373 512 553.373C558.981 553.373 596.686 515.667 596.686 468.686C596.686 421.705 558.981 384 512 384Z" fill="white"/>
</svg> 